<?xml version="1.0" encoding="UTF-8"?>
<svg xmlns="http://www.w3.org/2000/svg" version="1.1" width="100" height="100" viewBox="0 0 100 100"><rect x="0" y="0" width="100" height="100" fill="#ffffff"/><g transform="scale(4)"><g transform="translate(0,0)"><path fill-rule="evenodd" d="M10 0L10 2L11 2L11 0ZM12 0L12 1L13 1L13 0ZM14 0L14 1L15 1L15 2L14 2L14 3L13 3L13 2L12 2L12 4L14 4L14 5L11 5L11 6L10 6L10 4L11 4L11 3L8 3L8 4L9 4L9 5L8 5L8 7L9 7L9 8L6 8L6 9L7 9L7 10L5 10L5 8L0 8L0 11L1 11L1 12L3 12L3 13L0 13L0 17L1 17L1 14L2 14L2 16L3 16L3 17L4 17L4 16L6 16L6 17L7 17L7 16L9 16L9 17L8 17L8 19L9 19L9 18L11 18L11 17L12 17L12 18L13 18L13 19L12 19L12 21L13 21L13 20L14 20L14 21L17 21L17 23L16 23L16 22L15 22L15 23L14 23L14 24L18 24L18 25L25 25L25 20L24 20L24 19L25 19L25 18L24 18L24 17L25 17L25 14L23 14L23 15L24 15L24 16L22 16L22 14L21 14L21 15L20 15L20 14L19 14L19 16L18 16L18 14L17 14L17 13L16 13L16 14L15 14L15 15L14 15L14 16L15 16L15 17L12 17L12 15L13 15L13 14L11 14L11 15L10 15L10 16L9 16L9 14L8 14L8 15L7 15L7 14L6 14L6 13L7 13L7 12L6 12L6 11L9 11L9 9L10 9L10 11L11 11L11 9L12 9L12 10L13 10L13 11L12 11L12 13L13 13L13 12L14 12L14 13L15 13L15 12L18 12L18 13L19 13L19 12L20 12L20 13L21 13L21 10L22 10L22 11L23 11L23 12L22 12L22 13L25 13L25 10L24 10L24 8L23 8L23 10L22 10L22 8L21 8L21 10L18 10L18 8L17 8L17 5L15 5L15 4L14 4L14 3L15 3L15 2L16 2L16 3L17 3L17 1L15 1L15 0ZM8 1L8 2L9 2L9 1ZM9 6L9 7L10 7L10 6ZM11 6L11 7L12 7L12 9L14 9L14 10L16 10L16 11L17 11L17 10L16 10L16 9L17 9L17 8L16 8L16 9L15 9L15 7L16 7L16 6L15 6L15 7L14 7L14 6L13 6L13 7L12 7L12 6ZM10 8L10 9L11 9L11 8ZM19 8L19 9L20 9L20 8ZM1 9L1 10L2 10L2 9ZM3 9L3 10L4 10L4 9ZM3 11L3 12L4 12L4 13L3 13L3 14L5 14L5 15L6 15L6 16L7 16L7 15L6 15L6 14L5 14L5 13L6 13L6 12L4 12L4 11ZM14 11L14 12L15 12L15 11ZM9 12L9 13L11 13L11 12ZM16 14L16 15L15 15L15 16L17 16L17 14ZM17 17L17 20L20 20L20 17ZM21 17L21 18L22 18L22 17ZM15 18L15 19L14 19L14 20L16 20L16 18ZM18 18L18 19L19 19L19 18ZM10 19L10 20L11 20L11 19ZM21 19L21 20L23 20L23 21L22 21L22 22L20 22L20 21L19 21L19 22L18 22L18 23L19 23L19 22L20 22L20 23L21 23L21 24L24 24L24 22L23 22L23 21L24 21L24 20L23 20L23 19ZM8 20L8 25L12 25L12 23L13 23L13 22L11 22L11 21L9 21L9 20ZM10 22L10 23L9 23L9 24L11 24L11 22ZM22 22L22 23L23 23L23 22ZM0 0L0 7L7 7L7 0ZM1 1L1 6L6 6L6 1ZM2 2L2 5L5 5L5 2ZM18 0L18 7L25 7L25 0ZM19 1L19 6L24 6L24 1ZM20 2L20 5L23 5L23 2ZM0 18L0 25L7 25L7 18ZM1 19L1 24L6 24L6 19ZM2 20L2 23L5 23L5 20Z" fill="#000000"/></g></g></svg>
