<?xml version="1.0" encoding="UTF-8"?>
<svg xmlns="http://www.w3.org/2000/svg" version="1.1" width="100" height="100" viewBox="0 0 100 100"><rect x="0" y="0" width="100" height="100" fill="#ffffff"/><g transform="scale(4)"><g transform="translate(0,0)"><path fill-rule="evenodd" d="M10 0L10 1L9 1L9 2L8 2L8 3L9 3L9 5L10 5L10 7L11 7L11 8L12 8L12 9L11 9L11 10L10 10L10 9L9 9L9 6L8 6L8 8L4 8L4 9L3 9L3 8L0 8L0 10L1 10L1 9L2 9L2 12L4 12L4 13L3 13L3 14L2 14L2 13L1 13L1 14L0 14L0 15L1 15L1 16L0 16L0 17L1 17L1 16L2 16L2 17L3 17L3 15L4 15L4 13L5 13L5 14L6 14L6 15L7 15L7 14L8 14L8 15L9 15L9 16L12 16L12 17L10 17L10 19L12 19L12 20L10 20L10 22L12 22L12 20L14 20L14 22L13 22L13 23L14 23L14 22L15 22L15 19L16 19L16 21L19 21L19 23L20 23L20 24L18 24L18 25L20 25L20 24L21 24L21 23L22 23L22 21L21 21L21 16L22 16L22 15L23 15L23 17L22 17L22 18L23 18L23 20L24 20L24 21L25 21L25 16L24 16L24 15L25 15L25 12L23 12L23 14L22 14L22 15L21 15L21 14L20 14L20 13L19 13L19 12L18 12L18 13L17 13L17 11L20 11L20 12L21 12L21 13L22 13L22 12L21 12L21 11L22 11L22 9L23 9L23 8L22 8L22 9L21 9L21 11L20 11L20 9L19 9L19 8L17 8L17 4L14 4L14 3L16 3L16 2L17 2L17 0L15 0L15 2L14 2L14 0L13 0L13 2L14 2L14 3L12 3L12 2L11 2L11 3L12 3L12 5L10 5L10 3L9 3L9 2L10 2L10 1L11 1L11 0ZM13 5L13 7L12 7L12 6L11 6L11 7L12 7L12 8L13 8L13 9L14 9L14 10L13 10L13 11L14 11L14 10L15 10L15 11L16 11L16 8L15 8L15 7L16 7L16 6L15 6L15 7L14 7L14 5ZM4 9L4 10L3 10L3 11L4 11L4 12L5 12L5 13L6 13L6 14L7 14L7 13L6 13L6 12L8 12L8 14L9 14L9 15L10 15L10 12L8 12L8 11L10 11L10 10L9 10L9 9L8 9L8 11L6 11L6 10L7 10L7 9ZM17 9L17 10L18 10L18 9ZM24 9L24 10L23 10L23 11L25 11L25 9ZM4 10L4 11L5 11L5 10ZM0 11L0 12L1 12L1 11ZM11 11L11 12L12 12L12 14L11 14L11 15L12 15L12 16L13 16L13 17L14 17L14 18L13 18L13 19L14 19L14 18L15 18L15 17L16 17L16 16L18 16L18 15L19 15L19 16L20 16L20 15L19 15L19 14L18 14L18 15L16 15L16 13L15 13L15 14L14 14L14 12L12 12L12 11ZM1 14L1 15L2 15L2 14ZM13 14L13 15L14 15L14 14ZM4 16L4 17L5 17L5 16ZM6 16L6 17L8 17L8 21L9 21L9 17L8 17L8 16ZM17 17L17 20L20 20L20 17ZM23 17L23 18L24 18L24 17ZM18 18L18 19L19 19L19 18ZM8 22L8 25L9 25L9 24L10 24L10 25L11 25L11 24L12 24L12 25L13 25L13 24L12 24L12 23L11 23L11 24L10 24L10 23L9 23L9 22ZM16 22L16 23L15 23L15 25L17 25L17 23L18 23L18 22ZM24 22L24 23L23 23L23 25L25 25L25 24L24 24L24 23L25 23L25 22ZM0 0L0 7L7 7L7 0ZM1 1L1 6L6 6L6 1ZM2 2L2 5L5 5L5 2ZM18 0L18 7L25 7L25 0ZM19 1L19 6L24 6L24 1ZM20 2L20 5L23 5L23 2ZM0 18L0 25L7 25L7 18ZM1 19L1 24L6 24L6 19ZM2 20L2 23L5 23L5 20Z" fill="#000000"/></g></g></svg>
