<?xml version="1.0" encoding="UTF-8"?>
<svg xmlns="http://www.w3.org/2000/svg" version="1.1" width="100" height="100" viewBox="0 0 100 100"><rect x="0" y="0" width="100" height="100" fill="#ffffff"/><g transform="scale(4)"><g transform="translate(0,0)"><path fill-rule="evenodd" d="M10 0L10 1L9 1L9 2L8 2L8 3L9 3L9 5L10 5L10 7L11 7L11 8L12 8L12 9L11 9L11 10L10 10L10 9L9 9L9 6L8 6L8 8L4 8L4 9L3 9L3 8L0 8L0 10L1 10L1 11L0 11L0 13L1 13L1 12L2 12L2 15L1 15L1 14L0 14L0 15L1 15L1 16L0 16L0 17L1 17L1 16L2 16L2 17L7 17L7 16L8 16L8 13L9 13L9 14L12 14L12 12L14 12L14 14L13 14L13 15L14 15L14 14L15 14L15 13L16 13L16 15L18 15L18 16L16 16L16 17L15 17L15 18L14 18L14 17L13 17L13 16L12 16L12 15L10 15L10 17L8 17L8 21L9 21L9 22L8 22L8 25L10 25L10 24L12 24L12 25L13 25L13 24L12 24L12 23L11 23L11 22L12 22L12 20L14 20L14 22L13 22L13 23L14 23L14 22L15 22L15 19L16 19L16 21L19 21L19 23L20 23L20 24L18 24L18 25L20 25L20 24L21 24L21 23L22 23L22 21L21 21L21 16L22 16L22 15L23 15L23 17L22 17L22 18L23 18L23 20L24 20L24 21L25 21L25 16L24 16L24 15L25 15L25 12L23 12L23 14L22 14L22 15L21 15L21 14L20 14L20 13L19 13L19 12L18 12L18 13L17 13L17 11L20 11L20 12L21 12L21 13L22 13L22 12L21 12L21 11L22 11L22 9L23 9L23 8L22 8L22 9L21 9L21 11L20 11L20 9L19 9L19 8L17 8L17 4L14 4L14 3L12 3L12 2L11 2L11 3L12 3L12 5L10 5L10 3L9 3L9 2L10 2L10 1L11 1L11 0ZM13 0L13 2L14 2L14 0ZM15 0L15 3L16 3L16 2L17 2L17 0ZM13 5L13 7L12 7L12 6L11 6L11 7L12 7L12 8L13 8L13 9L14 9L14 10L13 10L13 11L14 11L14 10L15 10L15 11L16 11L16 8L15 8L15 7L16 7L16 6L15 6L15 7L14 7L14 5ZM1 9L1 10L3 10L3 11L2 11L2 12L4 12L4 10L3 10L3 9ZM5 9L5 13L3 13L3 14L4 14L4 15L3 15L3 16L7 16L7 15L6 15L6 14L7 14L7 13L6 13L6 12L9 12L9 13L10 13L10 12L9 12L9 11L10 11L10 10L8 10L8 9ZM17 9L17 10L18 10L18 9ZM24 9L24 10L23 10L23 11L25 11L25 9ZM6 10L6 11L8 11L8 10ZM11 11L11 12L12 12L12 11ZM5 13L5 14L6 14L6 13ZM18 14L18 15L19 15L19 16L20 16L20 15L19 15L19 14ZM11 16L11 17L12 17L12 16ZM17 17L17 20L20 20L20 17ZM23 17L23 18L24 18L24 17ZM9 18L9 19L10 19L10 21L11 21L11 20L12 20L12 19L11 19L11 18ZM13 18L13 19L14 19L14 18ZM18 18L18 19L19 19L19 18ZM9 22L9 23L10 23L10 22ZM16 22L16 23L15 23L15 25L17 25L17 23L18 23L18 22ZM24 22L24 23L23 23L23 25L25 25L25 24L24 24L24 23L25 23L25 22ZM0 0L0 7L7 7L7 0ZM1 1L1 6L6 6L6 1ZM2 2L2 5L5 5L5 2ZM18 0L18 7L25 7L25 0ZM19 1L19 6L24 6L24 1ZM20 2L20 5L23 5L23 2ZM0 18L0 25L7 25L7 18ZM1 19L1 24L6 24L6 19ZM2 20L2 23L5 23L5 20Z" fill="#000000"/></g></g></svg>
