<?xml version="1.0" encoding="UTF-8"?>
<svg xmlns="http://www.w3.org/2000/svg" version="1.1" width="100" height="100" viewBox="0 0 100 100"><rect x="0" y="0" width="100" height="100" fill="#ffffff"/><g transform="scale(4)"><g transform="translate(0,0)"><path fill-rule="evenodd" d="M8 0L8 1L9 1L9 0ZM10 0L10 2L9 2L9 5L10 5L10 2L11 2L11 4L14 4L14 7L13 7L13 5L11 5L11 6L10 6L10 8L9 8L9 6L8 6L8 8L9 8L9 9L8 9L8 10L5 10L5 8L3 8L3 9L2 9L2 8L0 8L0 10L1 10L1 9L2 9L2 11L1 11L1 12L0 12L0 17L1 17L1 15L2 15L2 16L3 16L3 17L4 17L4 16L6 16L6 17L7 17L7 16L8 16L8 18L10 18L10 21L9 21L9 20L8 20L8 22L10 22L10 21L11 21L11 23L8 23L8 25L12 25L12 24L13 24L13 20L14 20L14 19L13 19L13 20L12 20L12 18L14 18L14 17L15 17L15 16L16 16L16 19L15 19L15 21L17 21L17 22L16 22L16 23L17 23L17 24L14 24L14 25L17 25L17 24L18 24L18 25L19 25L19 24L21 24L21 25L22 25L22 24L24 24L24 25L25 25L25 21L24 21L24 19L25 19L25 18L24 18L24 16L25 16L25 14L24 14L24 13L25 13L25 10L24 10L24 9L25 9L25 8L24 8L24 9L19 9L19 8L18 8L18 9L19 9L19 10L21 10L21 12L24 12L24 13L23 13L23 14L21 14L21 13L20 13L20 15L19 15L19 16L18 16L18 14L17 14L17 12L15 12L15 14L14 14L14 13L13 13L13 12L12 12L12 13L11 13L11 14L13 14L13 15L10 15L10 12L11 12L11 11L12 11L12 9L13 9L13 11L14 11L14 10L15 10L15 11L18 11L18 10L16 10L16 8L17 8L17 5L16 5L16 8L14 8L14 7L15 7L15 4L17 4L17 3L15 3L15 2L14 2L14 1L15 1L15 0L14 0L14 1L13 1L13 3L12 3L12 2L11 2L11 0ZM16 1L16 2L17 2L17 1ZM14 3L14 4L15 4L15 3ZM11 6L11 8L12 8L12 6ZM6 8L6 9L7 9L7 8ZM13 8L13 9L14 9L14 8ZM3 9L3 10L4 10L4 12L2 12L2 14L3 14L3 15L4 15L4 14L3 14L3 13L4 13L4 12L7 12L7 13L5 13L5 15L6 15L6 16L7 16L7 15L6 15L6 14L7 14L7 13L9 13L9 11L10 11L10 10L8 10L8 12L7 12L7 11L5 11L5 10L4 10L4 9ZM22 10L22 11L24 11L24 10ZM19 11L19 12L18 12L18 13L19 13L19 12L20 12L20 11ZM9 15L9 17L10 17L10 18L12 18L12 17L13 17L13 16L15 16L15 15L13 15L13 16L12 16L12 17L10 17L10 15ZM16 15L16 16L17 16L17 15ZM20 15L20 16L21 16L21 21L19 21L19 22L18 22L18 23L20 23L20 22L23 22L23 19L24 19L24 18L22 18L22 16L21 16L21 15ZM23 15L23 16L24 16L24 15ZM17 17L17 20L20 20L20 17ZM18 18L18 19L19 19L19 18ZM21 23L21 24L22 24L22 23ZM0 0L0 7L7 7L7 0ZM1 1L1 6L6 6L6 1ZM2 2L2 5L5 5L5 2ZM18 0L18 7L25 7L25 0ZM19 1L19 6L24 6L24 1ZM20 2L20 5L23 5L23 2ZM0 18L0 25L7 25L7 18ZM1 19L1 24L6 24L6 19ZM2 20L2 23L5 23L5 20Z" fill="#000000"/></g></g></svg>
