<?xml version="1.0" encoding="UTF-8"?>
<svg xmlns="http://www.w3.org/2000/svg" version="1.1" width="100" height="100" viewBox="0 0 100 100"><rect x="0" y="0" width="100" height="100" fill="#ffffff"/><g transform="scale(4)"><g transform="translate(0,0)"><path fill-rule="evenodd" d="M9 0L9 1L8 1L8 3L9 3L9 2L10 2L10 1L11 1L11 2L13 2L13 1L14 1L14 4L13 4L13 6L12 6L12 7L11 7L11 5L12 5L12 4L11 4L11 3L10 3L10 4L11 4L11 5L9 5L9 4L8 4L8 8L6 8L6 9L5 9L5 10L4 10L4 11L3 11L3 12L2 12L2 13L5 13L5 14L3 14L3 15L1 15L1 14L0 14L0 15L1 15L1 16L0 16L0 17L4 17L4 15L5 15L5 17L8 17L8 19L10 19L10 18L12 18L12 17L11 17L11 16L10 16L10 18L9 18L9 16L6 16L6 15L7 15L7 14L6 14L6 13L7 13L7 12L8 12L8 13L9 13L9 11L11 11L11 13L10 13L10 14L8 14L8 15L12 15L12 14L11 14L11 13L14 13L14 15L13 15L13 16L14 16L14 18L13 18L13 19L12 19L12 21L13 21L13 22L12 22L12 23L13 23L13 25L15 25L15 24L16 24L16 25L20 25L20 24L17 24L17 21L19 21L19 23L21 23L21 24L22 24L22 23L23 23L23 21L22 21L22 20L23 20L23 19L24 19L24 20L25 20L25 17L24 17L24 18L23 18L23 19L22 19L22 17L23 17L23 16L24 16L24 15L25 15L25 12L23 12L23 13L22 13L22 12L21 12L21 11L20 11L20 10L19 10L19 9L21 9L21 8L18 8L18 9L16 9L16 11L11 11L11 10L9 10L9 9L8 9L8 8L10 8L10 9L11 9L11 8L12 8L12 10L13 10L13 9L15 9L15 8L16 8L16 7L17 7L17 6L16 6L16 4L15 4L15 3L16 3L16 0L13 0L13 1L12 1L12 0ZM14 5L14 6L13 6L13 7L12 7L12 8L14 8L14 6L15 6L15 7L16 7L16 6L15 6L15 5ZM9 6L9 7L10 7L10 8L11 8L11 7L10 7L10 6ZM0 8L0 9L1 9L1 10L0 10L0 11L1 11L1 10L3 10L3 9L4 9L4 8L3 8L3 9L2 9L2 8ZM22 8L22 9L24 9L24 10L23 10L23 11L25 11L25 9L24 9L24 8ZM6 9L6 10L5 10L5 11L6 11L6 12L5 12L5 13L6 13L6 12L7 12L7 11L6 11L6 10L7 10L7 9ZM17 10L17 11L19 11L19 12L20 12L20 14L21 14L21 16L23 16L23 15L24 15L24 13L23 13L23 15L22 15L22 14L21 14L21 12L20 12L20 11L19 11L19 10ZM0 12L0 13L1 13L1 12ZM14 12L14 13L15 13L15 16L16 16L16 14L17 14L17 16L18 16L18 15L19 15L19 16L20 16L20 15L19 15L19 14L17 14L17 13L16 13L16 12ZM17 17L17 20L20 20L20 17ZM14 18L14 19L13 19L13 20L14 20L14 21L16 21L16 19L15 19L15 18ZM18 18L18 19L19 19L19 18ZM14 19L14 20L15 20L15 19ZM9 20L9 21L8 21L8 22L9 22L9 23L8 23L8 25L10 25L10 24L11 24L11 25L12 25L12 24L11 24L11 23L10 23L10 22L11 22L11 21L10 21L10 20ZM9 21L9 22L10 22L10 21ZM13 22L13 23L14 23L14 24L15 24L15 23L14 23L14 22ZM21 22L21 23L22 23L22 22ZM24 22L24 23L25 23L25 22ZM9 23L9 24L10 24L10 23ZM23 24L23 25L25 25L25 24ZM0 0L0 7L7 7L7 0ZM1 1L1 6L6 6L6 1ZM2 2L2 5L5 5L5 2ZM18 0L18 7L25 7L25 0ZM19 1L19 6L24 6L24 1ZM20 2L20 5L23 5L23 2ZM0 18L0 25L7 25L7 18ZM1 19L1 24L6 24L6 19ZM2 20L2 23L5 23L5 20Z" fill="#000000"/></g></g></svg>
