<?xml version="1.0" encoding="UTF-8"?>
<svg xmlns="http://www.w3.org/2000/svg" version="1.1" width="100" height="100" viewBox="0 0 100 100"><rect x="0" y="0" width="100" height="100" fill="#ffffff"/><g transform="scale(4)"><g transform="translate(0,0)"><path fill-rule="evenodd" d="M8 0L8 1L9 1L9 2L8 2L8 5L9 5L9 4L11 4L11 5L10 5L10 10L9 10L9 11L7 11L7 10L8 10L8 9L9 9L9 8L8 8L8 9L7 9L7 8L6 8L6 9L7 9L7 10L6 10L6 11L5 11L5 9L4 9L4 8L0 8L0 9L2 9L2 12L3 12L3 13L4 13L4 15L3 15L3 14L1 14L1 15L0 15L0 16L1 16L1 15L2 15L2 16L3 16L3 17L4 17L4 15L5 15L5 17L8 17L8 18L9 18L9 21L8 21L8 25L9 25L9 23L10 23L10 25L12 25L12 24L15 24L15 22L14 22L14 23L11 23L11 21L10 21L10 20L12 20L12 19L11 19L11 16L12 16L12 17L13 17L13 16L12 16L12 14L13 14L13 15L14 15L14 18L13 18L13 21L15 21L15 20L16 20L16 21L17 21L17 22L18 22L18 23L17 23L17 24L18 24L18 25L25 25L25 24L23 24L23 23L24 23L24 22L25 22L25 21L23 21L23 22L22 22L22 21L21 21L21 20L22 20L22 19L24 19L24 20L25 20L25 17L23 17L23 16L22 16L22 15L24 15L24 16L25 16L25 15L24 15L24 14L25 14L25 12L24 12L24 11L23 11L23 10L24 10L24 9L25 9L25 8L24 8L24 9L23 9L23 8L20 8L20 9L21 9L21 11L20 11L20 10L19 10L19 11L20 11L20 14L22 14L22 15L19 15L19 12L18 12L18 11L17 11L17 12L18 12L18 13L15 13L15 12L14 12L14 14L13 14L13 12L12 12L12 13L11 13L11 11L14 11L14 8L15 8L15 6L14 6L14 8L13 8L13 6L12 6L12 5L13 5L13 4L14 4L14 3L16 3L16 2L17 2L17 1L16 1L16 2L15 2L15 0L14 0L14 2L13 2L13 0L12 0L12 1L11 1L11 0L10 0L10 1L9 1L9 0ZM11 2L11 4L12 4L12 3L13 3L13 2ZM15 4L15 5L16 5L16 4ZM8 6L8 7L9 7L9 6ZM11 6L11 8L12 8L12 6ZM16 6L16 10L18 10L18 8L17 8L17 6ZM3 9L3 10L4 10L4 9ZM11 9L11 10L12 10L12 9ZM22 9L22 10L23 10L23 9ZM4 11L4 12L5 12L5 13L6 13L6 14L7 14L7 15L6 15L6 16L7 16L7 15L8 15L8 17L9 17L9 18L10 18L10 17L9 17L9 16L10 16L10 15L11 15L11 13L10 13L10 14L9 14L9 13L6 13L6 12L7 12L7 11L6 11L6 12L5 12L5 11ZM0 12L0 13L1 13L1 12ZM21 12L21 13L22 13L22 14L23 14L23 13L22 13L22 12ZM14 14L14 15L15 15L15 19L16 19L16 16L17 16L17 15L16 15L16 14ZM18 15L18 16L19 16L19 15ZM21 16L21 17L22 17L22 18L23 18L23 17L22 17L22 16ZM17 17L17 20L20 20L20 17ZM18 18L18 19L19 19L19 18ZM9 21L9 22L10 22L10 21ZM19 21L19 22L20 22L20 21ZM18 23L18 24L20 24L20 23ZM0 0L0 7L7 7L7 0ZM1 1L1 6L6 6L6 1ZM2 2L2 5L5 5L5 2ZM18 0L18 7L25 7L25 0ZM19 1L19 6L24 6L24 1ZM20 2L20 5L23 5L23 2ZM0 18L0 25L7 25L7 18ZM1 19L1 24L6 24L6 19ZM2 20L2 23L5 23L5 20Z" fill="#000000"/></g></g></svg>
