<?xml version="1.0" encoding="UTF-8"?>
<svg xmlns="http://www.w3.org/2000/svg" version="1.1" width="100" height="100" viewBox="0 0 100 100"><rect x="0" y="0" width="100" height="100" fill="#ffffff"/><g transform="scale(4)"><g transform="translate(0,0)"><path fill-rule="evenodd" d="M8 0L8 2L9 2L9 4L8 4L8 9L7 9L7 8L5 8L5 9L3 9L3 8L0 8L0 10L1 10L1 9L2 9L2 10L6 10L6 11L4 11L4 12L2 12L2 11L0 11L0 13L2 13L2 14L0 14L0 15L3 15L3 16L0 16L0 17L3 17L3 16L4 16L4 17L8 17L8 18L9 18L9 19L8 19L8 20L9 20L9 19L10 19L10 21L9 21L9 22L8 22L8 25L10 25L10 24L9 24L9 22L10 22L10 23L12 23L12 24L11 24L11 25L12 25L12 24L13 24L13 23L14 23L14 25L17 25L17 23L18 23L18 21L20 21L20 22L19 22L19 24L18 24L18 25L19 25L19 24L21 24L21 25L22 25L22 24L21 24L21 23L22 23L22 22L23 22L23 23L25 23L25 22L24 22L24 21L22 21L22 22L21 22L21 16L22 16L22 15L23 15L23 14L24 14L24 15L25 15L25 12L24 12L24 13L23 13L23 14L21 14L21 15L17 15L17 12L18 12L18 14L20 14L20 13L19 13L19 12L20 12L20 9L21 9L21 12L22 12L22 11L23 11L23 10L24 10L24 11L25 11L25 8L23 8L23 10L22 10L22 9L21 9L21 8L17 8L17 6L16 6L16 8L15 8L15 4L16 4L16 5L17 5L17 4L16 4L16 3L14 3L14 2L15 2L15 0L14 0L14 2L13 2L13 1L12 1L12 2L13 2L13 5L14 5L14 8L15 8L15 11L16 11L16 12L15 12L15 13L14 13L14 14L13 14L13 15L14 15L14 17L13 17L13 18L14 18L14 17L15 17L15 16L16 16L16 19L14 19L14 22L13 22L13 23L12 23L12 21L13 21L13 19L12 19L12 13L13 13L13 11L12 11L12 10L14 10L14 9L13 9L13 8L12 8L12 9L11 9L11 4L12 4L12 3L10 3L10 2L11 2L11 0L10 0L10 2L9 2L9 0ZM16 1L16 2L17 2L17 1ZM9 5L9 8L10 8L10 5ZM12 6L12 7L13 7L13 6ZM16 8L16 9L17 9L17 10L16 10L16 11L17 11L17 10L18 10L18 11L19 11L19 10L18 10L18 9L17 9L17 8ZM6 9L6 10L7 10L7 9ZM10 9L10 10L9 10L9 11L10 11L10 14L11 14L11 13L12 13L12 12L11 12L11 9ZM6 11L6 12L4 12L4 13L3 13L3 14L4 14L4 16L5 16L5 15L6 15L6 16L7 16L7 15L6 15L6 14L8 14L8 16L10 16L10 18L11 18L11 16L10 16L10 15L9 15L9 12L7 12L7 11ZM6 12L6 13L7 13L7 12ZM4 13L4 14L5 14L5 13ZM14 14L14 15L15 15L15 14ZM23 16L23 17L24 17L24 19L23 19L23 20L25 20L25 17L24 17L24 16ZM17 17L17 20L20 20L20 17ZM18 18L18 19L19 19L19 18ZM11 20L11 21L12 21L12 20ZM15 21L15 24L16 24L16 23L17 23L17 22L16 22L16 21ZM24 24L24 25L25 25L25 24ZM0 0L0 7L7 7L7 0ZM1 1L1 6L6 6L6 1ZM2 2L2 5L5 5L5 2ZM18 0L18 7L25 7L25 0ZM19 1L19 6L24 6L24 1ZM20 2L20 5L23 5L23 2ZM0 18L0 25L7 25L7 18ZM1 19L1 24L6 24L6 19ZM2 20L2 23L5 23L5 20Z" fill="#000000"/></g></g></svg>
