<?xml version="1.0" encoding="UTF-8"?>
<svg xmlns="http://www.w3.org/2000/svg" version="1.1" width="100" height="100" viewBox="0 0 100 100"><rect x="0" y="0" width="100" height="100" fill="#ffffff"/><g transform="scale(4)"><g transform="translate(0,0)"><path fill-rule="evenodd" d="M10 0L10 1L8 1L8 3L9 3L9 4L8 4L8 8L6 8L6 9L4 9L4 8L3 8L3 9L2 9L2 8L0 8L0 9L2 9L2 10L4 10L4 11L5 11L5 10L6 10L6 11L7 11L7 12L6 12L6 13L4 13L4 15L3 15L3 16L2 16L2 15L1 15L1 14L0 14L0 15L1 15L1 16L0 16L0 17L4 17L4 16L5 16L5 17L8 17L8 19L9 19L9 21L8 21L8 22L9 22L9 21L10 21L10 20L11 20L11 19L12 19L12 20L13 20L13 18L14 18L14 20L15 20L15 19L16 19L16 21L19 21L19 22L20 22L20 23L23 23L23 22L22 22L22 21L21 21L21 16L22 16L22 18L23 18L23 19L22 19L22 20L23 20L23 21L25 21L25 16L24 16L24 15L25 15L25 12L24 12L24 11L25 11L25 9L24 9L24 8L22 8L22 9L21 9L21 8L18 8L18 10L17 10L17 8L16 8L16 7L17 7L17 5L16 5L16 4L14 4L14 3L12 3L12 7L11 7L11 4L10 4L10 3L9 3L9 2L11 2L11 0ZM15 0L15 1L13 1L13 2L15 2L15 3L16 3L16 1L17 1L17 0ZM13 4L13 7L12 7L12 8L13 8L13 9L14 9L14 10L15 10L15 11L14 11L14 12L12 12L12 16L10 16L10 17L9 17L9 19L11 19L11 18L12 18L12 16L14 16L14 17L16 17L16 16L18 16L18 15L19 15L19 16L20 16L20 15L22 15L22 16L23 16L23 15L24 15L24 14L23 14L23 15L22 15L22 13L23 13L23 11L21 11L21 9L20 9L20 10L19 10L19 11L17 11L17 10L16 10L16 8L15 8L15 7L16 7L16 6L15 6L15 5L14 5L14 4ZM9 5L9 8L8 8L8 9L10 9L10 10L9 10L9 11L8 11L8 10L7 10L7 9L6 9L6 10L7 10L7 11L8 11L8 12L7 12L7 13L6 13L6 14L5 14L5 16L7 16L7 15L6 15L6 14L8 14L8 16L9 16L9 14L10 14L10 15L11 15L11 13L10 13L10 12L9 12L9 11L11 11L11 8L10 8L10 5ZM14 6L14 7L13 7L13 8L14 8L14 9L15 9L15 8L14 8L14 7L15 7L15 6ZM22 9L22 10L24 10L24 9ZM0 11L0 12L2 12L2 13L3 13L3 11ZM15 11L15 12L14 12L14 13L13 13L13 15L15 15L15 13L17 13L17 14L16 14L16 15L17 15L17 14L19 14L19 15L20 15L20 14L19 14L19 12L18 12L18 13L17 13L17 11ZM8 12L8 13L9 13L9 12ZM21 12L21 13L22 13L22 12ZM17 17L17 20L20 20L20 17ZM18 18L18 19L19 19L19 18ZM11 21L11 22L12 22L12 21ZM14 21L14 22L15 22L15 21ZM17 22L17 23L14 23L14 24L15 24L15 25L17 25L17 24L18 24L18 25L20 25L20 24L18 24L18 22ZM24 22L24 23L25 23L25 22ZM8 23L8 25L10 25L10 24L11 24L11 23ZM12 24L12 25L13 25L13 24ZM23 24L23 25L25 25L25 24ZM0 0L0 7L7 7L7 0ZM1 1L1 6L6 6L6 1ZM2 2L2 5L5 5L5 2ZM18 0L18 7L25 7L25 0ZM19 1L19 6L24 6L24 1ZM20 2L20 5L23 5L23 2ZM0 18L0 25L7 25L7 18ZM1 19L1 24L6 24L6 19ZM2 20L2 23L5 23L5 20Z" fill="#000000"/></g></g></svg>
