<?xml version="1.0" encoding="UTF-8"?>
<svg xmlns="http://www.w3.org/2000/svg" version="1.1" width="100" height="100" viewBox="0 0 100 100"><rect x="0" y="0" width="100" height="100" fill="#ffffff"/><g transform="scale(4)"><g transform="translate(0,0)"><path fill-rule="evenodd" d="M9 0L9 1L11 1L11 2L9 2L9 3L8 3L8 5L9 5L9 6L8 6L8 7L9 7L9 9L10 9L10 10L9 10L9 11L10 11L10 12L8 12L8 13L7 13L7 12L6 12L6 13L5 13L5 15L4 15L4 13L3 13L3 12L4 12L4 11L5 11L5 9L7 9L7 10L6 10L6 11L7 11L7 10L8 10L8 8L5 8L5 9L4 9L4 11L1 11L1 10L0 10L0 11L1 11L1 12L2 12L2 13L0 13L0 17L1 17L1 14L2 14L2 16L3 16L3 17L5 17L5 16L6 16L6 17L8 17L8 20L9 20L9 22L10 22L10 24L9 24L9 23L8 23L8 25L14 25L14 23L16 23L16 25L19 25L19 24L21 24L21 25L22 25L22 23L23 23L23 22L24 22L24 25L25 25L25 20L24 20L24 21L23 21L23 20L22 20L22 18L24 18L24 19L25 19L25 18L24 18L24 17L25 17L25 14L23 14L23 15L22 15L22 13L21 13L21 15L22 15L22 16L20 16L20 14L19 14L19 16L18 16L18 14L17 14L17 13L20 13L20 12L22 12L22 11L23 11L23 12L24 12L24 13L25 13L25 10L24 10L24 9L22 9L22 8L20 8L20 10L18 10L18 9L17 9L17 11L16 11L16 8L17 8L17 5L16 5L16 8L14 8L14 7L15 7L15 5L14 5L14 4L17 4L17 0L16 0L16 3L15 3L15 1L14 1L14 0L13 0L13 1L12 1L12 0ZM13 1L13 2L12 2L12 4L11 4L11 7L10 7L10 6L9 6L9 7L10 7L10 8L11 8L11 10L10 10L10 11L11 11L11 10L13 10L13 11L12 11L12 12L11 12L11 14L9 14L9 15L6 15L6 16L9 16L9 17L11 17L11 19L10 19L10 22L11 22L11 24L12 24L12 23L13 23L13 22L12 22L12 21L14 21L14 22L15 22L15 20L14 20L14 19L12 19L12 18L15 18L15 19L16 19L16 17L14 17L14 16L13 16L13 17L12 17L12 15L13 15L13 14L12 14L12 13L13 13L13 12L14 12L14 11L15 11L15 13L16 13L16 11L15 11L15 10L14 10L14 8L13 8L13 9L12 9L12 6L13 6L13 7L14 7L14 6L13 6L13 5L12 5L12 4L14 4L14 1ZM9 3L9 5L10 5L10 3ZM0 8L0 9L2 9L2 10L3 10L3 9L2 9L2 8ZM21 9L21 11L22 11L22 9ZM17 11L17 12L18 12L18 11ZM2 13L2 14L3 14L3 13ZM6 13L6 14L7 14L7 13ZM16 14L16 15L17 15L17 14ZM3 15L3 16L4 16L4 15ZM9 15L9 16L10 16L10 15ZM23 15L23 16L24 16L24 15ZM17 17L17 20L20 20L20 17ZM18 18L18 19L19 19L19 18ZM11 19L11 21L12 21L12 19ZM19 21L19 22L18 22L18 23L19 23L19 22L20 22L20 23L22 23L22 21ZM16 22L16 23L17 23L17 22ZM0 0L0 7L7 7L7 0ZM1 1L1 6L6 6L6 1ZM2 2L2 5L5 5L5 2ZM18 0L18 7L25 7L25 0ZM19 1L19 6L24 6L24 1ZM20 2L20 5L23 5L23 2ZM0 18L0 25L7 25L7 18ZM1 19L1 24L6 24L6 19ZM2 20L2 23L5 23L5 20Z" fill="#000000"/></g></g></svg>
