<?xml version="1.0" encoding="UTF-8"?>
<svg xmlns="http://www.w3.org/2000/svg" version="1.1" width="100" height="100" viewBox="0 0 100 100"><rect x="0" y="0" width="100" height="100" fill="#ffffff"/><g transform="scale(4)"><g transform="translate(0,0)"><path fill-rule="evenodd" d="M8 0L8 1L10 1L10 2L9 2L9 3L10 3L10 4L14 4L14 7L13 7L13 6L12 6L12 5L11 5L11 6L10 6L10 5L9 5L9 6L8 6L8 8L9 8L9 9L10 9L10 10L8 10L8 9L7 9L7 8L6 8L6 9L5 9L5 8L3 8L3 10L0 10L0 17L1 17L1 15L2 15L2 17L4 17L4 15L2 15L2 13L3 13L3 14L4 14L4 13L5 13L5 14L6 14L6 15L5 15L5 17L7 17L7 16L8 16L8 18L9 18L9 16L8 16L8 14L9 14L9 15L11 15L11 16L10 16L10 17L11 17L11 16L12 16L12 18L10 18L10 19L9 19L9 20L8 20L8 22L9 22L9 23L8 23L8 25L9 25L9 23L12 23L12 22L14 22L14 25L17 25L17 24L18 24L18 25L19 25L19 24L21 24L21 25L22 25L22 24L24 24L24 25L25 25L25 21L24 21L24 20L23 20L23 22L20 22L20 23L18 23L18 22L19 22L19 21L21 21L21 16L22 16L22 18L24 18L24 19L25 19L25 18L24 18L24 16L25 16L25 14L24 14L24 13L25 13L25 10L24 10L24 9L25 9L25 8L24 8L24 9L19 9L19 8L18 8L18 9L19 9L19 10L21 10L21 12L24 12L24 13L23 13L23 14L21 14L21 13L20 13L20 15L19 15L19 16L18 16L18 14L17 14L17 12L15 12L15 14L14 14L14 13L13 13L13 11L14 11L14 10L15 10L15 11L18 11L18 10L16 10L16 8L17 8L17 5L16 5L16 8L14 8L14 7L15 7L15 4L17 4L17 3L15 3L15 2L14 2L14 1L15 1L15 0L14 0L14 1L13 1L13 3L10 3L10 2L11 2L11 0ZM16 1L16 2L17 2L17 1ZM14 3L14 4L15 4L15 3ZM9 6L9 7L10 7L10 9L11 9L11 7L12 7L12 8L13 8L13 9L12 9L12 10L13 10L13 9L14 9L14 8L13 8L13 7L12 7L12 6L11 6L11 7L10 7L10 6ZM0 8L0 9L2 9L2 8ZM6 9L6 10L7 10L7 9ZM10 10L10 11L5 11L5 12L11 12L11 13L12 13L12 14L11 14L11 15L12 15L12 16L15 16L15 17L14 17L14 18L12 18L12 19L14 19L14 20L11 20L11 19L10 19L10 21L14 21L14 22L15 22L15 24L17 24L17 23L16 23L16 22L17 22L17 21L15 21L15 19L16 19L16 16L17 16L17 15L16 15L16 16L15 16L15 15L13 15L13 13L12 13L12 12L11 12L11 10ZM22 10L22 11L24 11L24 10ZM2 11L2 12L3 12L3 13L4 13L4 11ZM19 11L19 12L18 12L18 13L19 13L19 12L20 12L20 11ZM6 13L6 14L8 14L8 13ZM9 13L9 14L10 14L10 13ZM6 15L6 16L7 16L7 15ZM20 15L20 16L21 16L21 15ZM23 15L23 16L24 16L24 15ZM17 17L17 20L20 20L20 17ZM18 18L18 19L19 19L19 18ZM21 23L21 24L22 24L22 23ZM10 24L10 25L11 25L11 24ZM12 24L12 25L13 25L13 24ZM0 0L0 7L7 7L7 0ZM1 1L1 6L6 6L6 1ZM2 2L2 5L5 5L5 2ZM18 0L18 7L25 7L25 0ZM19 1L19 6L24 6L24 1ZM20 2L20 5L23 5L23 2ZM0 18L0 25L7 25L7 18ZM1 19L1 24L6 24L6 19ZM2 20L2 23L5 23L5 20Z" fill="#000000"/></g></g></svg>
