<?xml version="1.0" encoding="UTF-8"?>
<svg xmlns="http://www.w3.org/2000/svg" version="1.1" width="100" height="100" viewBox="0 0 100 100"><rect x="0" y="0" width="100" height="100" fill="#ffffff"/><g transform="scale(4)"><g transform="translate(0,0)"><path fill-rule="evenodd" d="M11 0L11 1L9 1L9 2L11 2L11 1L14 1L14 0ZM16 0L16 3L15 3L15 2L14 2L14 3L13 3L13 2L12 2L12 4L14 4L14 8L15 8L15 9L12 9L12 7L13 7L13 5L11 5L11 6L10 6L10 8L9 8L9 9L8 9L8 8L5 8L5 10L4 10L4 9L2 9L2 8L0 8L0 11L2 11L2 12L1 12L1 13L0 13L0 17L1 17L1 14L2 14L2 16L4 16L4 17L8 17L8 20L9 20L9 21L10 21L10 22L9 22L9 23L8 23L8 25L10 25L10 24L9 24L9 23L10 23L10 22L11 22L11 24L12 24L12 23L13 23L13 22L11 22L11 21L10 21L10 20L11 20L11 19L12 19L12 21L13 21L13 20L14 20L14 22L15 22L15 23L14 23L14 24L13 24L13 25L15 25L15 23L16 23L16 25L19 25L19 24L21 24L21 25L22 25L22 23L23 23L23 22L24 22L24 25L25 25L25 20L24 20L24 19L25 19L25 18L24 18L24 17L25 17L25 14L23 14L23 15L22 15L22 13L21 13L21 15L22 15L22 16L20 16L20 14L19 14L19 16L18 16L18 14L17 14L17 13L20 13L20 12L22 12L22 11L23 11L23 12L24 12L24 13L25 13L25 10L24 10L24 9L22 9L22 8L20 8L20 10L18 10L18 9L17 9L17 11L16 11L16 8L17 8L17 5L16 5L16 8L15 8L15 4L17 4L17 0ZM8 3L8 5L10 5L10 4L9 4L9 3ZM8 6L8 7L9 7L9 6ZM11 6L11 7L12 7L12 6ZM10 8L10 10L8 10L8 11L6 11L6 10L7 10L7 9L6 9L6 10L5 10L5 11L6 11L6 12L3 12L3 13L2 13L2 14L3 14L3 13L6 13L6 14L5 14L5 15L4 15L4 16L5 16L5 15L6 15L6 16L7 16L7 15L8 15L8 17L9 17L9 18L10 18L10 17L11 17L11 18L12 18L12 19L14 19L14 20L15 20L15 19L16 19L16 17L15 17L15 13L16 13L16 11L14 11L14 13L11 13L11 12L12 12L12 11L13 11L13 10L12 10L12 9L11 9L11 8ZM1 9L1 10L2 10L2 11L3 11L3 10L2 10L2 9ZM21 9L21 11L22 11L22 9ZM10 10L10 11L8 11L8 12L6 12L6 13L9 13L9 15L11 15L11 17L12 17L12 18L15 18L15 17L12 17L12 15L13 15L13 14L10 14L10 11L11 11L11 10ZM6 14L6 15L7 15L7 14ZM16 14L16 15L17 15L17 14ZM23 15L23 16L24 16L24 15ZM17 17L17 20L20 20L20 17ZM18 18L18 19L19 19L19 18ZM22 18L22 20L23 20L23 21L24 21L24 20L23 20L23 19L24 19L24 18ZM9 19L9 20L10 20L10 19ZM19 21L19 22L18 22L18 23L19 23L19 22L20 22L20 23L22 23L22 21ZM16 22L16 23L17 23L17 22ZM0 0L0 7L7 7L7 0ZM1 1L1 6L6 6L6 1ZM2 2L2 5L5 5L5 2ZM18 0L18 7L25 7L25 0ZM19 1L19 6L24 6L24 1ZM20 2L20 5L23 5L23 2ZM0 18L0 25L7 25L7 18ZM1 19L1 24L6 24L6 19ZM2 20L2 23L5 23L5 20Z" fill="#000000"/></g></g></svg>
