<?xml version="1.0" encoding="UTF-8"?>
<svg xmlns="http://www.w3.org/2000/svg" version="1.1" width="100" height="100" viewBox="0 0 100 100"><rect x="0" y="0" width="100" height="100" fill="#ffffff"/><g transform="scale(4)"><g transform="translate(0,0)"><path fill-rule="evenodd" d="M8 0L8 1L9 1L9 2L10 2L10 3L11 3L11 1L14 1L14 0L11 0L11 1L9 1L9 0ZM16 0L16 2L17 2L17 0ZM12 2L12 4L11 4L11 5L10 5L10 4L9 4L9 5L10 5L10 8L9 8L9 6L8 6L8 8L9 8L9 9L7 9L7 8L6 8L6 9L7 9L7 10L5 10L5 11L3 11L3 10L4 10L4 9L5 9L5 8L3 8L3 9L2 9L2 8L0 8L0 9L1 9L1 10L2 10L2 11L3 11L3 12L0 12L0 17L1 17L1 15L5 15L5 14L6 14L6 15L7 15L7 16L4 16L4 17L7 17L7 16L10 16L10 18L9 18L9 17L8 17L8 18L9 18L9 20L8 20L8 22L9 22L9 21L11 21L11 22L10 22L10 23L8 23L8 25L9 25L9 24L10 24L10 25L11 25L11 24L12 24L12 25L13 25L13 24L12 24L12 21L13 21L13 23L14 23L14 24L15 24L15 25L17 25L17 24L18 24L18 25L19 25L19 24L21 24L21 25L22 25L22 24L24 24L24 25L25 25L25 21L23 21L23 22L20 22L20 23L18 23L18 22L19 22L19 21L21 21L21 16L22 16L22 18L24 18L24 19L23 19L23 20L25 20L25 18L24 18L24 16L25 16L25 14L24 14L24 13L25 13L25 10L24 10L24 9L25 9L25 8L24 8L24 9L19 9L19 8L18 8L18 9L19 9L19 10L21 10L21 12L24 12L24 13L23 13L23 14L21 14L21 13L20 13L20 15L19 15L19 16L18 16L18 14L17 14L17 12L14 12L14 15L15 15L15 16L16 16L16 19L15 19L15 18L14 18L14 16L12 16L12 15L13 15L13 14L9 14L9 13L10 13L10 12L11 12L11 13L13 13L13 11L18 11L18 10L16 10L16 8L17 8L17 5L16 5L16 8L15 8L15 10L13 10L13 9L12 9L12 7L13 7L13 8L14 8L14 7L15 7L15 4L17 4L17 3L15 3L15 2ZM12 4L12 5L11 5L11 7L12 7L12 5L13 5L13 4ZM13 6L13 7L14 7L14 6ZM10 9L10 10L9 10L9 11L10 11L10 10L12 10L12 11L13 11L13 10L12 10L12 9ZM22 10L22 11L24 11L24 10ZM6 11L6 12L3 12L3 13L6 13L6 14L7 14L7 15L9 15L9 14L7 14L7 13L9 13L9 12L7 12L7 11ZM19 11L19 12L18 12L18 13L19 13L19 12L20 12L20 11ZM6 12L6 13L7 13L7 12ZM10 15L10 16L11 16L11 17L12 17L12 16L11 16L11 15ZM16 15L16 16L17 16L17 15ZM20 15L20 16L21 16L21 15ZM23 15L23 16L24 16L24 15ZM17 17L17 20L20 20L20 17ZM10 18L10 19L11 19L11 21L12 21L12 20L13 20L13 21L14 21L14 20L13 20L13 18L12 18L12 19L11 19L11 18ZM18 18L18 19L19 19L19 18ZM15 21L15 22L14 22L14 23L15 23L15 24L17 24L17 23L16 23L16 22L17 22L17 21ZM10 23L10 24L11 24L11 23ZM21 23L21 24L22 24L22 23ZM0 0L0 7L7 7L7 0ZM1 1L1 6L6 6L6 1ZM2 2L2 5L5 5L5 2ZM18 0L18 7L25 7L25 0ZM19 1L19 6L24 6L24 1ZM20 2L20 5L23 5L23 2ZM0 18L0 25L7 25L7 18ZM1 19L1 24L6 24L6 19ZM2 20L2 23L5 23L5 20Z" fill="#000000"/></g></g></svg>
