<?xml version="1.0" encoding="UTF-8"?>
<svg xmlns="http://www.w3.org/2000/svg" version="1.1" width="100" height="100" viewBox="0 0 100 100"><rect x="0" y="0" width="100" height="100" fill="#ffffff"/><g transform="scale(4)"><g transform="translate(0,0)"><path fill-rule="evenodd" d="M10 0L10 2L9 2L9 3L8 3L8 5L10 5L10 8L9 8L9 10L10 10L10 11L9 11L9 12L8 12L8 10L6 10L6 9L8 9L8 8L5 8L5 10L4 10L4 9L3 9L3 10L2 10L2 8L0 8L0 17L1 17L1 14L2 14L2 15L3 15L3 16L2 16L2 17L3 17L3 16L4 16L4 17L5 17L5 14L6 14L6 15L7 15L7 14L8 14L8 16L6 16L6 17L8 17L8 20L10 20L10 21L9 21L9 23L8 23L8 25L12 25L12 23L13 23L13 21L14 21L14 20L15 20L15 21L17 21L17 22L16 22L16 24L15 24L15 23L14 23L14 25L17 25L17 22L19 22L19 21L21 21L21 16L22 16L22 17L23 17L23 15L24 15L24 16L25 16L25 14L24 14L24 13L25 13L25 10L24 10L24 9L22 9L22 8L20 8L20 9L19 9L19 10L20 10L20 11L19 11L19 12L18 12L18 11L17 11L17 10L16 10L16 9L17 9L17 6L16 6L16 8L15 8L15 5L14 5L14 8L13 8L13 5L12 5L12 4L14 4L14 3L15 3L15 4L17 4L17 1L16 1L16 3L15 3L15 0L14 0L14 3L12 3L12 2L11 2L11 0ZM10 3L10 5L11 5L11 8L10 8L10 9L11 9L11 8L12 8L12 5L11 5L11 3ZM8 6L8 7L9 7L9 6ZM12 9L12 10L11 10L11 11L10 11L10 14L9 14L9 16L8 16L8 17L9 17L9 18L10 18L10 19L11 19L11 18L10 18L10 17L13 17L13 16L14 16L14 18L12 18L12 20L14 20L14 19L16 19L16 16L17 16L17 14L18 14L18 16L19 16L19 13L20 13L20 14L22 14L22 15L23 15L23 13L24 13L24 11L23 11L23 10L22 10L22 12L21 12L21 11L20 11L20 12L19 12L19 13L18 13L18 12L17 12L17 14L16 14L16 16L15 16L15 15L14 15L14 13L15 13L15 12L16 12L16 11L13 11L13 9ZM3 10L3 11L2 11L2 12L1 12L1 13L2 13L2 14L3 14L3 15L4 15L4 14L5 14L5 13L6 13L6 14L7 14L7 13L6 13L6 12L7 12L7 11L6 11L6 10L5 10L5 12L4 12L4 10ZM11 11L11 12L12 12L12 13L11 13L11 14L10 14L10 15L11 15L11 16L13 16L13 15L11 15L11 14L13 14L13 12L12 12L12 11ZM2 12L2 13L3 13L3 14L4 14L4 12ZM20 15L20 16L21 16L21 15ZM9 16L9 17L10 17L10 16ZM17 17L17 20L20 20L20 17ZM18 18L18 19L19 19L19 18ZM24 18L24 19L23 19L23 20L22 20L22 21L23 21L23 22L21 22L21 23L18 23L18 25L19 25L19 24L21 24L21 25L22 25L22 24L21 24L21 23L23 23L23 22L24 22L24 25L25 25L25 21L24 21L24 19L25 19L25 18ZM11 22L11 23L9 23L9 24L11 24L11 23L12 23L12 22ZM0 0L0 7L7 7L7 0ZM1 1L1 6L6 6L6 1ZM2 2L2 5L5 5L5 2ZM18 0L18 7L25 7L25 0ZM19 1L19 6L24 6L24 1ZM20 2L20 5L23 5L23 2ZM0 18L0 25L7 25L7 18ZM1 19L1 24L6 24L6 19ZM2 20L2 23L5 23L5 20Z" fill="#000000"/></g></g></svg>
